<svg width="18" height="18" viewBox="0 0 18 18" fill="none" xmlns="http://www.w3.org/2000/svg">
<path d="M8 13C8 13.5523 8.44772 14 9 14V14C9.55228 14 10 13.5523 10 13V10H13C13.5523 10 14 9.55228 14 9V9C14 8.44772 13.5523 8 13 8H10V5C10 4.44772 9.55228 4 9 4V4C8.44772 4 8 4.44772 8 5V8H5C4.44772 8 4 8.44772 4 9V9C4 9.55228 4.44772 10 5 10H8V13ZM2 18C1.45 18 0.979167 17.8042 0.5875 17.4125C0.195833 17.0208 0 16.55 0 16V2C0 1.45 0.195833 0.979167 0.5875 0.5875C0.979167 0.195833 1.45 0 2 0H16C16.55 0 17.0208 0.195833 17.4125 0.5875C17.8042 0.979167 18 1.45 18 2V16C18 16.55 17.8042 17.0208 17.4125 17.4125C17.0208 17.8042 16.55 18 16 18H2ZM1.5 15.5C1.5 16.0523 1.94772 16.5 2.5 16.5H15.5C16.0523 16.5 16.5 16.0523 16.5 15.5V2.5C16.5 1.94772 16.0523 1.5 15.5 1.5H2.5C1.94772 1.5 1.5 1.94772 1.5 2.5V15.5Z" fill="#375D44" fill-opacity="0.5"/>
</svg>
