<svg width="24" height="24" viewBox="0 0 24 24" fill="none" xmlns="http://www.w3.org/2000/svg">
<g clip-path="url(#clip0_611_27829)">
<mask id="mask0_611_27829" style="mask-type:luminance" maskUnits="userSpaceOnUse" x="0" y="0" width="24" height="24">
<path d="M24 0H0V24H24V0Z" fill="white"/>
</mask>
<g mask="url(#mask0_611_27829)">
<path d="M9.46154 18.8852C4.84615 20.1677 4.84615 16.3203 3 16.3203M15.9231 21V17.6685C15.9624 17.2055 15.8754 16.738 15.6804 16.313C15.5025 15.9255 15.7076 15.364 16.1273 15.2883C18.6581 14.8318 21 13.5454 21 9.45229C20.9998 8.47646 20.6685 7.53122 20.062 6.74637C19.8138 6.42514 19.7261 6.00219 19.8144 5.60595C19.9732 4.89268 19.9355 4.15236 19.7033 3.4543C19.6104 3.17495 19.3637 2.98395 19.0704 3.00934C18.5761 3.05215 17.6708 3.2636 16.2874 4.06903C16.0534 4.2053 15.7752 4.24919 15.5105 4.19174C13.6569 3.78936 11.7277 3.78936 9.8741 4.19174C9.60944 4.24919 9.33126 4.2053 9.09721 4.06903C7.71384 3.2636 6.80855 3.05215 6.31419 3.00934C6.02088 2.98395 5.77421 3.17495 5.68128 3.4543C5.44907 4.15236 5.41146 4.89267 5.57025 5.60593C5.65846 6.00218 5.57077 6.42515 5.32255 6.74638C4.71067 7.53826 4.37896 8.49326 4.38462 9.47794C4.38462 13.5511 6.73814 14.8301 9.27616 15.3064C9.69235 15.3845 9.89107 15.9393 9.71235 16.3232C9.51619 16.7445 9.42659 17.2083 9.46154 17.6685L9.46155 21" stroke="#262626" stroke-width="2" stroke-linecap="round" stroke-linejoin="round"/>
</g>
</g>
<defs>
<clipPath id="clip0_611_27829">
<rect width="24" height="24" fill="white"/>
</clipPath>
</defs>
</svg>
