<svg width="26" height="26" viewBox="0 0 26 26" fill="none" xmlns="http://www.w3.org/2000/svg">
<circle cx="13" cy="13" r="13" fill="#EDE2A4"/>
<path d="M8.625 19V17.2667H14.8375C15.7562 17.2667 16.5547 16.9778 17.2328 16.4C17.9109 15.8222 18.25 15.1 18.25 14.2333C18.25 13.3667 17.9109 12.6444 17.2328 12.0667C16.5547 11.4889 15.7562 11.2 14.8375 11.2H9.325L11.6 13.4533L10.375 14.6667L6 10.3333L10.375 6L11.6 7.21333L9.325 9.46667H14.8375C16.2521 9.46667 17.4661 9.92167 18.4797 10.8317C19.4932 11.7417 20 12.8756 20 14.2333C20 15.5911 19.4932 16.725 18.4797 17.635C17.4661 18.545 16.2521 19 14.8375 19H8.625Z" fill="white"/>
</svg>
