<?xml version="1.0" standalone="no"?>
<!DOCTYPE svg PUBLIC "-//W3C//DTD SVG 20010904//EN"
 "http://www.w3.org/TR/2001/REC-SVG-20010904/DTD/svg10.dtd">
<svg version="1.0" xmlns="http://www.w3.org/2000/svg"
 width="260.000000pt" height="260.000000pt" viewBox="0 0 260.000000 260.000000"
 preserveAspectRatio="xMidYMid meet">
<metadata>
Created by potrace 1.14, written by Peter Selinger 2001-2017
</metadata>
<g transform="translate(0.000000,260.000000) scale(0.100000,-0.100000)"
fill="#000000" stroke="none">
<path d="M0 1300 l0 -1300 1300 0 1300 0 0 1300 0 1300 -1300 0 -1300 0 0
-1300z m2043 715 c210 -104 281 -375 150 -572 -81 -122 -239 -189 -384 -163
-92 17 -147 46 -215 116 -82 83 -107 145 -108 269 -1 77 3 98 26 148 15 32 37
71 48 87 33 46 104 100 167 126 51 22 70 24 158 21 86 -3 108 -7 158 -32z
m-625 -42 c-2 -5 -19 -40 -37 -79 l-34 -71 -116 -7 c-152 -8 -236 -22 -291
-49 l-45 -22 218 -3 217 -2 0 -75 0 -75 -235 0 -235 0 0 -120 0 -120 283 0
283 0 38 -46 c21 -25 56 -59 79 -75 l40 -29 -361 0 -362 0 0 -137 c0 -157 10
-191 69 -230 34 -23 36 -23 395 -23 343 0 363 1 394 20 58 36 72 72 72 188 l0
102 80 0 80 0 0 -117 c0 -135 -8 -173 -50 -234 -27 -41 -30 -51 -30 -135 0
-127 -10 -139 -115 -139 -96 0 -115 17 -115 101 l0 54 -315 0 -315 0 0 -58 c0
-73 -18 -93 -89 -100 -63 -6 -95 2 -121 30 -17 19 -20 35 -20 116 0 85 -2 96
-26 127 -51 67 -54 95 -54 530 0 333 3 410 15 453 30 101 110 159 266 193 118
25 445 49 437 32z m-314 -868 c132 -63 39 -268 -96 -212 -45 19 -68 56 -68
109 0 51 21 85 64 104 41 17 61 17 100 -1z m557 -8 c21 -14 39 -38 48 -63 13
-37 12 -44 -5 -80 -13 -26 -32 -45 -58 -58 -36 -17 -43 -18 -80 -5 -82 28
-110 126 -54 186 44 48 97 55 149 20z"/>
<path d="M1830 1778 l1 -123 84 -90 85 -90 30 31 31 30 -75 72 -76 72 0 110 0
110 -40 0 -40 0 0 -122z"/>
</g>
</svg>
