<svg width="630" height="139" viewBox="0 0 630 139" fill="none" xmlns="http://www.w3.org/2000/svg">
<g filter="url(#filter0_b_3185_629)">
<path d="M0 0H630V139H0V0Z" fill="#FFF06A"/>
<path d="M280.594 77.026H274.354V74.946H280.594V77.026ZM282.674 74.946H280.594V68.706H282.674V74.946ZM274.354 74.946H272.3V72.866H274.354V74.946ZM280.594 60.386H274.354V58.306H280.594V60.386ZM282.674 62.466H280.594V60.386H282.674V62.466ZM274.354 66.626H272.3V60.386H274.354V66.626ZM280.594 68.706H274.354V66.626H280.594V68.706Z" fill="#424242"/>
<path d="M295.674 60.386H287.354V66.626H293.594V68.706H287.354V74.946H295.674V77H285.3V58.306H295.674V60.386Z" fill="#424242"/>
<path d="M306.594 77.026H300.354V74.946H306.594V77.026ZM308.674 74.946H306.594V68.706H308.674V74.946ZM300.354 74.946H298.3V72.866H300.354V74.946ZM306.594 60.386H300.354V58.306H306.594V60.386ZM308.674 62.466H306.594V60.386H308.674V62.466ZM300.354 66.626H298.3V60.386H300.354V66.626ZM306.594 68.706H300.354V66.626H306.594V68.706Z" fill="#424242"/>
<path d="M319.594 77.026H313.354V74.946H319.594V77.026ZM321.674 74.946H319.594V68.706H321.674V74.946ZM313.354 74.946H311.3V72.866H313.354V74.946ZM319.594 60.386H313.354V58.306H319.594V60.386ZM321.674 62.466H319.594V60.386H321.674V62.466ZM313.354 66.626H311.3V60.386H313.354V66.626ZM319.594 68.706H313.354V66.626H319.594V68.706Z" fill="#424242"/>
<path d="M326.354 77H324.3V58.306H326.354V77Z" fill="#424242"/>
<path d="M331.026 74.946H328.972V60.386H331.026V74.946ZM339.346 77.026H331.026V74.946H339.346V77.026ZM341.426 74.946H339.346V60.386H341.426V74.946ZM339.346 60.386H331.026V58.306H339.346V60.386Z" fill="#424242"/>
<path d="M350.268 68.706H348.188V64.546H350.268V68.706ZM346.108 60.386H348.188V64.546H346.108V77H344.054V58.306H346.108V60.386ZM354.428 58.306H356.508V77H354.428V74.946H352.348V70.786H354.428V58.306ZM352.348 70.786H350.268V68.706H352.348V70.786Z" fill="#424242"/>
<path d="M373.117 68.706H368.957V66.626H373.117V68.706ZM373.117 77.026H366.877V74.946H373.117V77.026ZM375.197 74.946H373.117V68.706H375.197V74.946ZM366.877 74.946H364.823V72.866H366.877V74.946ZM366.877 62.466H364.823V60.386H366.877V62.466ZM375.197 66.626H373.117V60.386H375.197V66.626ZM373.117 60.386H366.877V58.306H373.117V60.386Z" fill="#424242"/>
<path d="M271 78.274H376.523V79.548H271V78.274Z" fill="#424242"/>
</g>
<defs>
<filter id="filter0_b_3185_629" x="-4" y="-4" width="638" height="147" filterUnits="userSpaceOnUse" color-interpolation-filters="sRGB">
<feFlood flood-opacity="0" result="BackgroundImageFix"/>
<feGaussianBlur in="BackgroundImageFix" stdDeviation="2"/>
<feComposite in2="SourceAlpha" operator="in" result="effect1_backgroundBlur_3185_629"/>
<feBlend mode="normal" in="SourceGraphic" in2="effect1_backgroundBlur_3185_629" result="shape"/>
</filter>
</defs>
</svg>
